<!DOCTYPE svg PUBLIC "-//W3C//DTD SVG 1.1//EN" "http://www.w3.org/Graphics/SVG/1.1/DTD/svg11.dtd">
<!-- Uploaded to: SVG Repo, www.svgrepo.com, Transformed by: SVG Repo Mixer Tools -->
<svg fill="#000000" width="800px" height="800px" viewBox="0 0 24 24" id="up-arrow-circle" data-name="Flat Line" xmlns="http://www.w3.org/2000/svg" class="icon flat-line">
<g id="SVGRepo_bgCarrier" stroke-width="0"/>
<g id="SVGRepo_tracerCarrier" stroke-linecap="round" stroke-linejoin="round"/>
<g id="SVGRepo_iconCarrier">
<path id="secondary" d="M12,3a9,9,0,1,0,9,9A9,9,0,0,0,12,3Zm2.14,9H9.86a1,1,0,0,1-.69-1.5l2.14-3.12a.82.82,0,0,1,1.38,0l2.14,3.12A1,1,0,0,1,14.14,12Z" style="fill: #5271ff; stroke-width: 2;"/>
<path id="primary" d="M12,17V12m-.69-4.63L9.17,10.5A1,1,0,0,0,9.86,12h4.28a1,1,0,0,0,.69-1.5L12.69,7.38A.82.82,0,0,0,11.31,7.37ZM12,3a9,9,0,1,0,9,9A9,9,0,0,0,12,3Z" style="fill: none; stroke: #323131; stroke-linecap: round; stroke-linejoin: round; stroke-width: 2;"/>
</g>
</svg>