<svg xmlns="http://www.w3.org/2000/svg" version="1.1" xmlns:xlink="http://www.w3.org/1999/xlink" xmlns:svgjs="http://svgjs.dev/svgjs" width="1560" height="1971" preserveAspectRatio="none" viewBox="0 0 1560 1971"><g mask="url(&quot;#SvgjsMask1016&quot;)" fill="none"><rect width="1560" height="1971" x="0" y="0" fill="rgba(255, 255, 255, 1)"></rect><path d="M1586 1971L0 1971 L0 1128.63Q-30.73 967.9, 130 937.17Q160.51 837.68, 260 868.19Q346.28 824.48, 390 910.76Q512.23 954.99, 468 1077.22Q404.99 936.21, 546 873.2Q570.2 767.4, 676 791.6Q754.14 739.75, 806 817.89Q899.86 833.75, 884 927.61Q933.06 898.67, 962 947.74Q1054.46 962.21, 1040 1054.67Q1155.24 1039.91, 1170 1155.16Q1257.22 1112.38, 1300 1199.61Q1315.81 1085.42, 1430 1101.23Q1363.18 956.41, 1508 889.6Q1624.11 927.7, 1586 1043.81z" fill="rgba(255, 235, 153, 1)"></path><path d="M1612 1971L0 1971 L0 1332.09Q10.25 1264.34, 78 1274.58Q77.76 1144.34, 208 1144.09Q251.19 1057.28, 338 1100.47Q413.83 1046.3, 468 1122.12Q550.51 1126.63, 546 1209.13Q729.61 1262.74, 676 1446.36Q607.84 1248.19, 806 1180.03Q823.62 1067.64, 936 1085.26Q981.36 1052.62, 1014 1097.98Q1063.19 1069.17, 1092 1118.36Q1189.31 1137.67, 1170 1234.98Q1319.58 1306.56, 1248 1456.13Q1305.66 1435.79, 1326 1493.45Q1337.6 1427.05, 1404 1438.65Q1294.62 1251.27, 1482 1141.88Q1677.83 1207.71, 1612 1403.54z" fill="rgba(255, 239, 173, 1)"></path><path d="M1612 1971L0 1971 L0 1591.11Q56.49 1569.6, 78 1626.09Q179.19 1597.28, 208 1698.48Q313.63 1674.11, 338 1779.73Q387.24 1698.97, 468 1748.2Q522.44 1672.64, 598 1727.09Q688.97 1688.06, 728 1779.03Q773.48 1746.51, 806 1791.98Q843.58 1699.56, 936 1737.13Q993.07 1664.2, 1066 1721.28Q1092.73 1670.01, 1144 1696.74Q1140.53 1563.27, 1274 1559.8Q1310.04 1465.84, 1404 1501.88Q1382.66 1402.54, 1482 1381.2Q1648.23 1417.43, 1612 1583.67z" fill="rgba(255, 243, 194, 1)"></path><path d="M1612 1971L0 1971 L0 1983.46Q-12.72 1892.74, 78 1880.03Q47.04 1719.07, 208 1688.1Q374.42 1724.52, 338 1890.94Q445.45 1868.39, 468 1975.85Q510.41 1888.26, 598 1930.67Q612.71 1815.38, 728 1830.09Q739.38 1763.46, 806 1774.84Q814.55 1705.39, 884 1713.94Q1090.74 1842.68, 962 2049.42Q845.02 1854.44, 1040 1737.46Q1242.09 1861.55, 1118 2063.64Q1039.31 1906.94, 1196 1828.25Q1222.78 1725.03, 1326 1751.8Q1374.42 1722.22, 1404 1770.63Q1439.09 1675.72, 1534 1710.81Q1578.53 1677.34, 1612 1721.87z" fill="rgba(255, 247, 214, 1)"></path></g><defs><mask id="SvgjsMask1016"><rect width="1560" height="1971" fill="#ffffff"></rect></mask></defs></svg>