<svg xmlns="http://www.w3.org/2000/svg" version="1.1" xmlns:xlink="http://www.w3.org/1999/xlink" xmlns:svgjs="http://svgjs.dev/svgjs" width="1560" height="1971" preserveAspectRatio="none" viewBox="0 0 1560 1971"><g mask="url(&quot;#SvgjsMask1025&quot;)" fill="none"><rect width="1560" height="1971" x="0" y="0" fill="rgba(51, 51, 51, 1)"></rect><path d="M1690 1971L0 1971 L0 1070.46Q-100.92 891.54, 78 790.61Q253.36 835.98, 208 1011.34Q297.06 1022.4, 286 1111.46Q280.31 975.77, 416 970.07Q464.53 888.61, 546 937.14Q600.42 861.56, 676 915.97Q796.65 906.62, 806 1027.27Q899.58 990.85, 936 1084.42Q985.48 1003.9, 1066 1053.38Q1082.69 940.07, 1196 956.76Q1212.38 895.14, 1274 911.53Q1297.29 856.82, 1352 880.11Q1393.03 791.14, 1482 832.18Q1532.84 805.02, 1560 855.86Q1766.08 931.94, 1690 1138.02z" fill="rgba(92, 92, 92, 1)"></path><path d="M1586 1971L0 1971 L0 1158.02Q193.99 1274.01, 78 1468.01Q-28.08 1283.93, 156 1177.85Q184.47 1076.32, 286 1104.78Q334.37 1075.15, 364 1123.52Q468.28 1149.8, 442 1254.07Q547.82 1229.88, 572 1335.7Q624.74 1258.44, 702 1311.18Q786.39 1265.57, 832 1349.96Q864.21 1252.17, 962 1284.38Q999.84 1192.22, 1092 1230.05Q1076.77 1136.82, 1170 1121.6Q1190.42 1064.02, 1248 1084.44Q1321.07 1027.51, 1378 1100.59Q1493.03 1085.62, 1508 1200.64Q1517.44 1132.09, 1586 1141.53z" fill="rgba(82, 82, 82, 1)"></path><path d="M1690 1971L0 1971 L0 1416.5Q115.7 1402.2, 130 1517.91Q278.2 1588.12, 208 1736.32Q121.5 1519.82, 338 1433.32Q549.75 1567.07, 416 1778.82Q350.98 1635.8, 494 1570.79Q460.85 1459.64, 572 1426.49Q729.66 1506.15, 650 1663.81Q582.4 1518.21, 728 1450.62Q765.63 1358.25, 858 1395.88Q891.91 1351.79, 936 1385.7Q1032.23 1351.93, 1066 1448.15Q1167.01 1419.16, 1196 1520.17Q1343.33 1589.5, 1274 1736.83Q1147.54 1532.37, 1352 1405.9Q1492.69 1468.6, 1430 1609.29Q1579.21 1628.5, 1560 1777.71Q1447.06 1534.77, 1690 1421.83z" fill="rgba(71, 71, 71, 1)"></path><path d="M1586 1971L0 1971 L0 1761.09Q11.12 1694.2, 78 1705.32Q128.38 1625.69, 208 1676.07Q298.14 1636.21, 338 1726.35Q400.39 1710.74, 416 1773.14Q522.75 1749.89, 546 1856.63Q692.27 1872.9, 676 2019.17Q724.42 1989.59, 754 2038.01Q754.41 1960.42, 832 1960.84Q872.92 1871.76, 962 1912.69Q1016.84 1837.53, 1092 1892.37Q1081.32 1803.69, 1170 1793.01Q1152.04 1697.05, 1248 1679.1Q1502.02 1803.12, 1378 2057.13Q1358.59 1907.72, 1508 1888.31Q1453.66 1755.97, 1586 1701.64z" fill="rgba(61, 61, 61, 1)"></path></g><defs><mask id="SvgjsMask1025"><rect width="1560" height="1971" fill="#ffffff"></rect></mask></defs></svg>